<svg width="8" height="15" viewBox="0 0 8 15" fill="none" xmlns="http://www.w3.org/2000/svg">
<path fill-rule="evenodd" clip-rule="evenodd" d="M0.292893 12.7929C-0.0976323 13.1834 -0.0976323 13.8166 0.292892 14.2071C0.683416 14.5976 1.31658 14.5976 1.70711 14.2071L7.70672 8.2075C7.70685 8.20737 7.70698 8.20724 7.70711 8.20711C7.75592 8.15829 7.79864 8.10568 7.83525 8.05023C7.94719 7.88069 8.00209 7.68457 7.99994 7.48895C7.99928 7.42866 7.9932 7.36841 7.98169 7.30901C7.94508 7.11991 7.85355 6.93934 7.70711 6.79289L1.70711 0.792893C1.31658 0.402368 0.683418 0.402368 0.292894 0.792892C-0.0976303 1.18342 -0.0976303 1.81658 0.292894 2.20711L5.58579 7.5L0.292893 12.7929Z" fill="#92929D"/>
</svg>
